<?xml version="1.0" encoding="UTF-8" standalone="no"?>
<svg
   xmlns:dc="http://purl.org/dc/elements/1.1/"
   xmlns:cc="http://creativecommons.org/ns#"
   xmlns:rdf="http://www.w3.org/1999/02/22-rdf-syntax-ns#"
   xmlns:svg="http://www.w3.org/2000/svg"
   xmlns="http://www.w3.org/2000/svg"
   xmlns:xlink="http://www.w3.org/1999/xlink"
   xmlns:sodipodi="http://sodipodi.sourceforge.net/DTD/sodipodi-0.dtd"
   xmlns:inkscape="http://www.inkscape.org/namespaces/inkscape"
   version="1.1"
   id="svg833"
   width="1000"
   height="500"
   viewBox="0 0 1000 500"
   sodipodi:docname="adp.svg"
   inkscape:version="1.0.1 (3bc2e813f5, 2020-09-07)">
  <metadata
     id="metadata839">
    <rdf:RDF>
      <cc:Work
         rdf:about="">
        <dc:format>image/svg+xml</dc:format>
        <dc:type
           rdf:resource="http://purl.org/dc/dcmitype/StillImage" />
        <dc:title></dc:title>
      </cc:Work>
    </rdf:RDF>
  </metadata>
  <defs
     id="defs837">
    <rect
       x="-523.33789"
       y="-260.45187"
       width="1053.9781"
       height="645.04437"
       id="rect3303" />
    <rect
       x="699.57312"
       y="-155.77574"
       width="518.4696"
       height="197.16451"
       id="rect3297" />
    <rect
       x="443.98947"
       y="681.56488"
       width="498.99658"
       height="255.5836"
       id="rect3285" />
    <rect
       x="694.70483"
       y="647.48706"
       width="710.76587"
       height="292.09555"
       id="rect3279" />
    <inkscape:path-effect
       effect="bspline"
       id="path-effect3149"
       is_visible="true"
       lpeversion="1"
       weight="33.333333"
       steps="2"
       helper_size="0"
       apply_no_weight="true"
       apply_with_weight="true"
       only_selected="false" />
    <inkscape:path-effect
       effect="bspline"
       id="path-effect3147"
       is_visible="true"
       lpeversion="1"
       weight="33.333333"
       steps="2"
       helper_size="0"
       apply_no_weight="true"
       apply_with_weight="true"
       only_selected="false" />
    <inkscape:path-effect
       effect="bspline"
       id="path-effect3145"
       is_visible="true"
       lpeversion="1"
       weight="33.333333"
       steps="2"
       helper_size="0"
       apply_no_weight="true"
       apply_with_weight="true"
       only_selected="false" />
    <inkscape:path-effect
       effect="bspline"
       id="path-effect2960"
       is_visible="true"
       lpeversion="1"
       weight="33.333333"
       steps="2"
       helper_size="0"
       apply_no_weight="true"
       apply_with_weight="true"
       only_selected="false" />
    <inkscape:path-effect
       effect="bspline"
       id="path-effect2958"
       is_visible="true"
       lpeversion="1"
       weight="33.333333"
       steps="2"
       helper_size="0"
       apply_no_weight="true"
       apply_with_weight="true"
       only_selected="false" />
    <inkscape:path-effect
       effect="bspline"
       id="path-effect2956"
       is_visible="true"
       lpeversion="1"
       weight="33.333333"
       steps="2"
       helper_size="0"
       apply_no_weight="true"
       apply_with_weight="true"
       only_selected="false" />
    <pattern
       inkscape:collect="always"
       xlink:href="#Strips1_1"
       id="pattern2807"
       patternTransform="matrix(10,0,0,10,-31.947952,-27.383959)" />
    <pattern
       inkscape:collect="always"
       patternUnits="userSpaceOnUse"
       width="2"
       height="1"
       patternTransform="translate(0,0) scale(10,10)"
       id="Strips1_1"
       inkscape:stockid="Stripes 1:1">
      <rect
         style="fill:black;stroke:none"
         x="0"
         y="-0.5"
         width="1"
         height="2"
         id="rect1848" />
    </pattern>
    <inkscape:path-effect
       effect="spiro"
       id="path-effect860"
       is_visible="true"
       lpeversion="1" />
    <inkscape:path-effect
       effect="bspline"
       id="path-effect856"
       is_visible="true"
       lpeversion="1"
       weight="33.333333"
       steps="2"
       helper_size="0"
       apply_no_weight="true"
       apply_with_weight="true"
       only_selected="false" />
    <inkscape:path-effect
       effect="bspline"
       id="path-effect852"
       is_visible="true"
       lpeversion="1"
       weight="33.333333"
       steps="2"
       helper_size="0"
       apply_no_weight="true"
       apply_with_weight="true"
       only_selected="false" />
    <inkscape:path-effect
       effect="bspline"
       id="path-effect848"
       is_visible="true"
       lpeversion="1"
       weight="33.333333"
       steps="2"
       helper_size="0"
       apply_no_weight="true"
       apply_with_weight="true"
       only_selected="false" />
  </defs>
  <sodipodi:namedview
     pagecolor="#ffffff"
     bordercolor="#666666"
     borderopacity="1"
     objecttolerance="10"
     gridtolerance="10"
     guidetolerance="10"
     inkscape:pageopacity="0"
     inkscape:pageshadow="2"
     inkscape:window-width="1350"
     inkscape:window-height="728"
     id="namedview835"
     showgrid="false"
     inkscape:zoom="0.41082445"
     inkscape:cx="72.39798"
     inkscape:cy="64.25036"
     inkscape:window-x="0"
     inkscape:window-y="0"
     inkscape:window-maximized="0"
     inkscape:current-layer="g841"
     inkscape:document-rotation="0"
     inkscape:pagecheckerboard="false"
     fit-margin-top="0"
     fit-margin-left="0"
     fit-margin-right="0"
     fit-margin-bottom="0" />
  <g
     inkscape:groupmode="layer"
     inkscape:label="Image"
     id="g841"
     transform="translate(-191.43067,-174.28984)">
    <g
       id="g1817"
       transform="matrix(6.5996638,0,0,6.5996638,-761.69883,-912.36955)">
      <g
         id="g3360"
         transform="matrix(0.12347051,0,0,0.12347051,187.0319,161.84139)">
        <g
           id="g3068">
          <g
             id="g3048">
            <path
               style="fill:#0000ff;stroke:#000000;stroke-width:1px;stroke-linecap:butt;stroke-linejoin:miter;stroke-opacity:0"
               d="m 224.86978,280.84021 h 10.49719 v -43.96647 -86.4116 -34.99061 l 102.84198,3.49906 96.60452,2.89053 43.35793,1.52133 -57.20205,-5.17253 -94.62679,-8.51945 -90.67133,-8.36732 -77.74001,6.38959 -26.77543,2.12986 0.15213,39.25034 -34.382084,-0.30426 -21.45077,6.23745 -3.95546,4.41186 66.634304,0.15214 0.15214,-7.91092 c 0,0 0.81237,-1.52034 1.21706,-2.282 0.40469,-0.76167 1.01522,-0.60753 1.52133,-0.9128 0.50611,-0.30527 2.43513,-0.50611 3.6512,-0.76067 1.21606,-0.25455 5.17352,-0.10042 7.75879,-0.15213 2.58526,-0.0517 47.16126,0.60853 47.16126,0.60853 0,0 1.52233,0.71096 2.28199,1.06494 0.66026,0.71096 1.31949,1.42091 1.97773,2.12986 0.30528,0.76168 0.60954,1.52233 0.9128,2.282 0.001,1.57307 0.001,3.14508 0,4.71612 -0.0497,0.8124 -0.10042,1.62376 -0.15213,2.43413 1.77592,1.31952 3.55077,2.63798 5.32466,3.95546 0.25456,6.2893 -0.15213,10.64932 -0.15213,10.64932 l 0.45639,17.49531 2.12987,5.02039 0.15213,37.88114 8.97585,2.7384 v 26.01476 l 3.07651,5.32866 z"
               id="path845" />
            <path
               style="fill:#0000ff;stroke:#000000;stroke-width:1px;stroke-linecap:butt;stroke-linejoin:miter;stroke-opacity:0"
               d="m 138.35088,162.9281 -1.50604,43.02974 H 56.164076 l 7.53021,-40.01766 c 0,0 1.14846,-1.00303 1.72119,-1.50604 1.07676,-0.50102 2.15248,-1.00303 3.22723,-1.50604 2.00909,0.001 69.708174,0 69.708174,0 z"
               id="path832" />
            <path
               style="fill:#0000ff;stroke:#000000;stroke-width:1px;stroke-linecap:butt;stroke-linejoin:miter;stroke-opacity:0"
               d="m 55.697766,213.14098 -0.9128,20.84223 h 64.504444 v -20.99436 z"
               id="path834" />
            <path
               style="fill:#0000ff;stroke:#000000;stroke-width:1px;stroke-linecap:butt;stroke-linejoin:miter;stroke-opacity:0"
               d="m 128.11313,239.91641 0.15213,12.62704 -42.597274,-1.06493 c 0,0 -1.21606,0.50811 -1.8256,0.76067 -0.50612,0.45741 -1.01322,0.9138 -1.52133,1.36919 -0.15113,0.96453 -0.30326,1.92802 -0.4564,2.89053 0.0517,1.31952 0.10243,2.63798 0.15214,3.95546 0.15313,0.4067 0.30526,0.81238 0.4564,1.21707 0.40669,0.20385 0.81237,0.40669 1.21706,0.60853 1.82664,-0.0497 41.836604,-0.4564 41.836604,-0.4564 l -0.15213,5.78106 -26.166894,-0.15213 -1.8256,3.80333 h -32.86075 l -6.08532,6.38959 -0.9128,6.08532 -5.933193,-0.30427 -0.4564,-28.44889 c 0,0 0.508111,-0.70895 0.760666,-1.06493 0.761677,-0.30327 1.522327,-0.60753 2.281997,-0.9128 1.31951,-0.40469 2.63797,-0.81037 3.95546,-1.21706 0.71097,-0.4047 1.42091,-0.81038 2.12986,-1.21707 0.001,-0.30327 0.001,-0.60753 0,-0.9128 -0.8611,0.001 -1.72317,0.001 -2.58626,0 -1.16538,0.10243 -2.33171,0.20385 -3.49906,0.30427 -0.0497,-1.46965 -0.10042,-2.94024 -0.15213,-4.41186 10e-4,-1.62179 10e-4,-3.24451 0,-4.86826 0.4574,-0.4047 0.91379,-0.81038 1.36919,-1.21706 4.56509,-0.0497 72.719634,0.4564 72.719634,0.4564 z"
               id="path836" />
            <path
               style="fill:#0000ff;stroke:#000000;stroke-width:1px;stroke-linecap:butt;stroke-linejoin:miter;stroke-opacity:0"
               d="m 151.25981,163.3584 30.55111,-0.4303 0.21515,37.43587 c 0,0 -3.87168,0.8616 -5.80902,1.29089 -1.86365,0.35959 -3.72824,0.71817 -5.59386,1.07575 -2.07881,0.86161 -4.15854,1.72219 -6.23931,2.58178 -1.72023,0.71818 -3.44138,1.43533 -5.16357,2.15149 -1.50507,1.07676 -3.01108,2.15249 -4.51812,3.22723 -0.57275,1.14848 -2.15149,3.44238 -2.15149,3.44238 l -6.02417,-0.21515 -0.64544,-12.26348 1.72119,-16.13615 1.72119,-13.33922 z"
               id="path838" />
            <path
               style="fill:#0000ff;stroke:#000000;stroke-width:1px;stroke-linecap:butt;stroke-linejoin:miter;stroke-opacity:0"
               d="m 190.63202,163.14325 0.21515,34.63894 6.66961,4.30297 6.88475,-4.51812 v -5.37872 l -5.16356,-4.51812 -0.21515,-20.22398 -4.51813,-4.30297 z"
               id="path840" />
            <path
               style="fill:#0000ff;stroke:#000000;stroke-width:1px;stroke-linecap:butt;stroke-linejoin:miter;stroke-opacity:0"
               d="m 146.41896,249.84817 17.53462,0.96817 -0.21515,3.01208 -3.11966,7.09991 -10.43471,-0.32272 -3.7651,-5.056 z"
               id="path844" />
            <path
               style="fill:#0000ff;stroke:#000000;stroke-width:1px;stroke-linecap:butt;stroke-linejoin:miter;stroke-opacity:0"
               d="m 178.36777,258.95838 c -1.57205,1.49599 -0.0507,-7.93626 -0.0507,-7.93626 0,0 9.28012,-7.15025 9.28012,-7.15025 0,0 16.58251,0.30426 16.58251,0.30426 0,0 8.36732,2.12987 8.36732,2.12987 0.40569,0.55782 0.8122,1.11677 1.06539,1.97885 0.25319,0.86207 0.35461,2.0284 0.40528,3.29615 0.0507,1.26775 0.0507,2.63692 -0.12693,3.65082 -0.17758,1.01391 -0.53255,1.67314 -1.16606,2.15462 -0.6335,0.48148 -1.54628,0.78574 -2.5856,0.83664 -1.03931,0.0509 -2.20564,-0.15193 -3.16921,-0.60795 -0.96358,-0.45603 -1.72423,-1.16597 -2.51042,-2.20545 -0.7862,-1.03948 -1.59756,-2.40865 -4.64012,-3.11919 -3.04256,-0.71054 -8.3164,-0.76125 -12.52594,0.70938 -4.20954,1.47063 -7.35356,4.46253 -8.92562,5.95851 z"
               id="path846"
               inkscape:path-effect="#path-effect848"
               inkscape:original-d="m 176.79572,260.45437 1.52133,-9.43225 9.28012,-7.15025 16.58251,0.30426 8.36732,2.12987 c 0,0 0.81238,1.11664 1.21706,1.67346 0.10243,1.16738 0.20385,2.33371 0.30427,3.49906 0.001,1.37023 0.001,2.7394 0,4.1076 -0.35398,0.66025 -0.70895,1.31948 -1.06493,1.97773 -0.91182,0.30527 -1.8246,0.60953 -2.7384,0.91279 -1.16537,-0.20184 -2.3317,-0.40468 -3.49906,-0.60853 -0.75968,-0.70897 -1.52033,-1.41891 -2.28199,-2.12986 -0.8104,-1.36823 -1.62176,-2.7374 -2.43413,-4.1076 -5.27306,-0.0497 -10.5469,-0.10042 -15.82185,-0.15213 -3.14314,2.99301 -6.28717,5.9849 -9.43225,8.97585 z" />
            <path
               style="fill:#0000ff;stroke:#000000;stroke-width:1px;stroke-linecap:butt;stroke-linejoin:miter;stroke-opacity:0"
               d="m 85.009272,289.56304 c 7.607137,-1.06545 22.921878,-0.8626 30.730978,0.10148 7.80909,0.96409 8.11336,2.68824 7.5046,5.22348 -0.60875,2.53524 -2.13005,5.8821 -3.14418,7.8089 -1.01412,1.9268 -1.52122,2.4339 -2.12976,3.04244 -0.60854,0.60854 -1.31848,1.31848 -2.73799,1.82553 -1.41951,0.50705 -3.54933,0.81131 -6.59195,0.96351 -3.04262,0.15219 -6.998,0.15219 -9.837766,1.5e-4 -2.839767,-0.15203 -4.563907,-0.45629 -6.33878,-0.96327 -1.774873,-0.50699 -3.600433,-1.21693 -5.628967,-2.53521 -2.028535,-1.31828 -4.259775,-3.24526 -5.832007,-4.96932 -1.572232,-1.72406 -2.485011,-3.24536 -2.992452,-5.17248 -0.507442,-1.92711 -0.608863,-4.25977 6.998274,-5.32521 z"
               id="path850"
               inkscape:path-effect="#path-effect852"
               inkscape:original-d="m 77.300666,288.29473 c 15.31573,0.20385 30.630474,0.40669 45.944204,0.60854 0.30527,1.7252 0.60953,3.44935 0.9128,5.17252 -1.52036,3.348 -3.04167,6.69486 -4.564,10.04079 -0.50612,0.50812 -1.01322,1.01522 -1.52133,1.52133 -0.70897,0.71097 -1.41891,1.42091 -2.12986,2.12986 -2.12891,0.30527 -4.25873,0.60953 -6.38959,0.9128 -3.95454,0.001 -7.90992,0.001 -11.866384,0 -1.72321,-0.30327 -3.44735,-0.60753 -5.17253,-0.9128 -1.82463,-0.70897 -3.65019,-1.41891 -5.47679,-2.12986 -2.23033,-1.92606 -4.46157,-3.85304 -6.69386,-5.78106 -0.91181,-1.52036 -1.82459,-3.04166 -2.73839,-4.56399 -0.10043,-2.33176 -0.20185,-4.66442 -0.30427,-6.99813 z" />
            <path
               style="fill:#0000ff;stroke:#000000;stroke-width:1px;stroke-linecap:butt;stroke-linejoin:miter;stroke-opacity:0"
               d="m 150.57858,272.32122 c 3.70244,-0.76113 11.00483,-0.76113 14.70621,-1.62277 3.70138,-0.86163 3.8028,-2.58577 4.41185,-2.83926 0.60905,-0.25349 1.72467,0.96355 2.23127,2.3327 0.5066,1.36916 0.40518,2.89046 0.15155,4.2595 -0.25363,1.36905 -0.65931,2.58609 -1.01428,3.44803 -0.35497,0.86194 -0.65923,1.36904 -0.96341,1.77459 -0.30418,0.40554 -0.60844,0.7098 -2.33214,0.86194 -1.72371,0.15213 -4.86773,0.15213 -7.809,0.15213 -2.94127,0 -5.67961,0 -7.86018,-0.7602 -2.18057,-0.7602 -3.80329,-2.2815 -4.56451,-3.80286 -0.76121,-1.52137 -0.65979,-3.04267 3.04264,-3.8038 z"
               id="path854"
               inkscape:path-effect="#path-effect856"
               inkscape:original-d="m 146.97763,271.56009 c 7.30339,10e-4 14.60578,10e-4 21.90717,0 0.10242,-1.72321 0.20384,-3.44735 0.30427,-5.17252 1.11666,1.21809 2.23228,2.43513 3.34692,3.65119 -0.10042,1.52236 -0.20184,3.04366 -0.30426,4.56399 -0.4047,1.21809 -0.81038,2.43513 -1.21707,3.6512 -0.30327,0.50812 -0.60753,1.01522 -0.9128,1.52133 -0.30327,0.30527 -0.60753,0.60953 -0.91279,0.9128 -3.14315,10e-4 -6.28717,10e-4 -9.43226,0 -2.73745,10e-4 -5.47579,10e-4 -8.21518,0 -1.62179,-1.52036 -3.24451,-3.04166 -4.86826,-4.564 0.10242,-1.52036 0.20384,-3.04166 0.30426,-4.56399 z" />
            <ellipse
               style="fill:#0000ff;fill-rule:evenodd"
               id="path2813"
               cx="195.0517"
               cy="284.49142"
               rx="3.6511946"
               ry="4.41186" />
            <ellipse
               style="fill:#0000ff;fill-opacity:0;fill-rule:evenodd;stroke:#0000ff;stroke-width:5.54905;stroke-miterlimit:4;stroke-dasharray:none;stroke-opacity:1"
               id="path2811"
               cx="193.83464"
               cy="284.94778"
               rx="17.701582"
               ry="22.569841" />
            <path
               style="fill:#0000ff;fill-opacity:1;stroke:#0000ff;stroke-width:1px;stroke-linecap:butt;stroke-linejoin:miter;stroke-opacity:1"
               d="m 173.20497,283.41137 c -3.36966,0.001 -6.74032,0.001 -10.11199,0 0.0727,2.8697 0.14444,5.7383 0.21515,8.60595 1.36364,2.72627 2.72622,5.45143 4.08783,8.17565 1.72222,2.00909 3.44338,4.0171 5.16357,6.02416 1.86566,1.36363 3.73024,2.72622 5.59386,4.08782 2.58284,-0.14243 5.16457,-0.28586 7.74536,-0.43029 1.6505,10e-4 3.29994,10e-4 4.94842,0 -3.44145,-1.79194 -6.88376,-3.58481 -10.32714,-5.37872 -1.93538,-3.15458 -3.87168,-6.31003 -5.80902,-9.46654 -0.35758,-2.29397 -1.50604,-11.61803 -1.50604,-11.61803 z"
               id="path2819" />
            <path
               style="fill:#0000ff;stroke:#000000;stroke-width:1px;stroke-linecap:butt;stroke-linejoin:miter;stroke-opacity:0"
               d="m 213.65293,290.08098 55.07807,0.21515 -4.08783,4.08782 -51.85084,-0.43029 z"
               id="path2825" />
            <path
               style="fill:#0000ff;stroke:#000000;stroke-width:1px;stroke-linecap:butt;stroke-linejoin:miter;stroke-opacity:0"
               d="m 210.4257,298.90208 73.796,-0.21515 -1.07574,2.79693 -74.44145,0.21515 z"
               id="path2827" />
            <path
               style="fill:#0000ff;stroke:#000000;stroke-width:1px;stroke-linecap:butt;stroke-linejoin:miter;stroke-opacity:0.00803211"
               d="m 203.11064,306.86258 86.27463,0.21515 -3.22723,4.08782 -95.31087,-0.86059 z"
               id="path2829" />
            <path
               style="fill:none;stroke:#0000ff;stroke-width:1px;stroke-linecap:butt;stroke-linejoin:miter;stroke-opacity:1"
               d="m 207.46365,201.17641 0.60853,29.51382 -4.86826,4.56399 -26.16689,-0.91279 -13.08345,12.47491"
               id="path3018" />
          </g>
        </g>
        <g
           id="g3203"
           transform="matrix(-1,0,0,1,546.22293,-146.05634)">
          <path
             style="fill:#ff0000;stroke:#000000;stroke-width:1px;stroke-linecap:butt;stroke-linejoin:miter;stroke-opacity:0"
             d="m 234.11511,504.89311 h 10.49719 v -43.96647 -86.4116 -34.99061 l 89.21576,4.45958 v 0 l -48.68259,-2.43413 v 0 l -0.6743,-12.06624 -39.55461,-4.10759 -77.74001,6.38959 -26.77543,2.12986 0.15213,39.25034 -34.38208,-0.30426 -21.450769,6.23745 -3.95546,4.41186 66.634299,0.15214 0.15214,-7.91092 c 0,0 0.81237,-1.52034 1.21706,-2.282 0.40469,-0.76167 1.01522,-0.60753 1.52133,-0.9128 0.50611,-0.30527 2.43513,-0.50611 3.6512,-0.76067 1.21606,-0.25455 5.17352,-0.10042 7.75879,-0.15213 2.58526,-0.0517 47.16126,0.60853 47.16126,0.60853 0,0 1.52233,0.71096 2.28199,1.06494 0.66026,0.71096 1.31949,1.42091 1.97773,2.12986 0.30528,0.76168 0.60954,1.52233 0.9128,2.282 0.001,1.57307 0.001,3.14508 0,4.71612 -0.0497,0.8124 -0.10042,1.62376 -0.15213,2.43413 1.77592,1.31952 3.55077,2.63798 5.32466,3.95546 0.25456,6.2893 -0.15213,10.64932 -0.15213,10.64932 l 0.45639,17.49531 2.12987,5.02039 0.15213,37.88114 8.97585,2.7384 v 26.01476 l 3.07651,5.32866 z"
             id="path845-4"
             sodipodi:nodetypes="cccccccccccccccccccssssccccccccccccccc" />
          <path
             style="fill:#ff0000;stroke:#000000;stroke-width:1px;stroke-linecap:butt;stroke-linejoin:miter;stroke-opacity:0"
             d="m 147.59621,386.981 -1.50604,43.02974 H 65.409411 l 7.53021,-40.01766 c 0,0 1.14846,-1.00303 1.72119,-1.50604 1.07676,-0.50102 2.15248,-1.00303 3.22723,-1.50604 2.00909,0.001 69.708169,0 69.708169,0 z"
             id="path832-3" />
          <path
             style="fill:#ff0000;stroke:#000000;stroke-width:1px;stroke-linecap:butt;stroke-linejoin:miter;stroke-opacity:0"
             d="m 64.943101,437.19388 -0.9128,20.84223 h 64.504439 v -20.99436 z"
             id="path834-2" />
          <path
             style="fill:#ff0000;stroke:#000000;stroke-width:1px;stroke-linecap:butt;stroke-linejoin:miter;stroke-opacity:0"
             d="m 137.35846,463.96931 0.15213,12.62704 -42.597269,-1.06493 c 0,0 -1.21606,0.50811 -1.8256,0.76067 -0.50612,0.45741 -1.01322,0.9138 -1.52133,1.36919 -0.15113,0.96453 -0.30326,1.92802 -0.4564,2.89053 0.0517,1.31952 0.10243,2.63798 0.15214,3.95546 0.15313,0.4067 0.30526,0.81238 0.4564,1.21707 0.40669,0.20385 0.81237,0.40669 1.21706,0.60853 1.82664,-0.0497 41.836599,-0.4564 41.836599,-0.4564 l -0.15213,5.78106 -26.16689,-0.15213 -1.8256,3.80333 H 73.766821 l -6.08532,6.38959 -0.9128,6.08532 -5.933193,-0.30427 -0.4564,-28.44889 c 0,0 0.508111,-0.70895 0.760666,-1.06493 0.761677,-0.30327 1.522327,-0.60753 2.281997,-0.9128 1.31951,-0.40469 2.63797,-0.81037 3.95546,-1.21706 0.71097,-0.4047 1.42091,-0.81038 2.12986,-1.21707 10e-4,-0.30327 10e-4,-0.60753 0,-0.9128 -0.8611,10e-4 -1.72317,10e-4 -2.58626,0 -1.16538,0.10243 -2.33171,0.20385 -3.49906,0.30427 -0.0497,-1.46965 -0.10042,-2.94024 -0.15213,-4.41186 10e-4,-1.62179 10e-4,-3.24451 0,-4.86826 0.4574,-0.4047 0.91379,-0.81038 1.36919,-1.21706 4.56509,-0.0497 72.719629,0.4564 72.719629,0.4564 z"
             id="path836-2" />
          <path
             style="fill:#ff0000;stroke:#000000;stroke-width:1px;stroke-linecap:butt;stroke-linejoin:miter;stroke-opacity:0"
             d="m 160.50514,387.4113 30.55111,-0.4303 0.21515,37.43587 c 0,0 -3.87168,0.8616 -5.80902,1.29089 -1.86365,0.35959 -3.72824,0.71817 -5.59386,1.07575 -2.07881,0.86161 -4.15854,1.72219 -6.23931,2.58178 -1.72023,0.71818 -3.44138,1.43533 -5.16357,2.15149 -1.50507,1.07676 -3.01108,2.15249 -4.51812,3.22723 -0.57275,1.14848 -2.15149,3.44238 -2.15149,3.44238 l -6.02417,-0.21515 -0.64544,-12.26348 1.72119,-16.13615 1.72119,-13.33922 z"
             id="path838-2" />
          <path
             style="fill:#ff0000;stroke:#000000;stroke-width:1px;stroke-linecap:butt;stroke-linejoin:miter;stroke-opacity:0"
             d="m 199.87735,387.19615 0.21515,34.63894 6.66961,4.30297 6.88475,-4.51812 v -5.37872 l -5.16356,-4.51812 -0.21515,-20.22398 -4.51813,-4.30297 z"
             id="path840-1" />
          <path
             style="fill:#ff0000;stroke:#000000;stroke-width:1px;stroke-linecap:butt;stroke-linejoin:miter;stroke-opacity:0"
             d="m 155.66429,473.90107 17.53462,0.96817 -0.21515,3.01208 -3.11966,7.09991 -10.43471,-0.32272 -3.7651,-5.056 z"
             id="path844-4" />
          <path
             style="fill:#ff0000;stroke:#000000;stroke-width:1px;stroke-linecap:butt;stroke-linejoin:miter;stroke-opacity:0"
             d="m 187.6131,483.01128 c -1.57205,1.49599 -0.0507,-7.93626 -0.0507,-7.93626 0,0 9.28012,-7.15025 9.28012,-7.15025 0,0 16.58251,0.30426 16.58251,0.30426 0,0 8.36732,2.12987 8.36732,2.12987 0.40569,0.55782 0.8122,1.11677 1.06539,1.97885 0.25319,0.86207 0.35461,2.0284 0.40528,3.29615 0.0507,1.26775 0.0507,2.63692 -0.12693,3.65082 -0.17758,1.01391 -0.53255,1.67314 -1.16606,2.15462 -0.6335,0.48148 -1.54628,0.78574 -2.5856,0.83664 -1.03931,0.0509 -2.20564,-0.15193 -3.16921,-0.60795 -0.96358,-0.45603 -1.72423,-1.16597 -2.51042,-2.20545 -0.7862,-1.03948 -1.59756,-2.40865 -4.64012,-3.11919 -3.04256,-0.71054 -8.3164,-0.76125 -12.52594,0.70938 -4.20954,1.47063 -7.35356,4.46253 -8.92562,5.95851 z"
             id="path846-4"
             inkscape:path-effect="#path-effect3145"
             inkscape:original-d="m 186.04105,484.50727 1.52133,-9.43225 9.28012,-7.15025 16.58251,0.30426 8.36732,2.12987 c 0,0 0.81238,1.11664 1.21706,1.67346 0.10243,1.16738 0.20385,2.33371 0.30427,3.49906 0.001,1.37023 0.001,2.7394 0,4.1076 -0.35398,0.66025 -0.70895,1.31948 -1.06493,1.97773 -0.91182,0.30527 -1.8246,0.60953 -2.7384,0.91279 -1.16537,-0.20184 -2.3317,-0.40468 -3.49906,-0.60853 -0.75968,-0.70897 -1.52033,-1.41891 -2.28199,-2.12986 -0.8104,-1.36823 -1.62176,-2.7374 -2.43413,-4.1076 -5.27306,-0.0497 -10.5469,-0.10042 -15.82185,-0.15213 -3.14314,2.99301 -6.28717,5.9849 -9.43225,8.97585 z" />
          <path
             style="fill:#ff0000;stroke:#000000;stroke-width:1px;stroke-linecap:butt;stroke-linejoin:miter;stroke-opacity:0"
             d="m 94.254606,513.61594 c 7.607134,-1.06545 22.921874,-0.8626 30.730974,0.10148 7.80909,0.96409 8.11336,2.68824 7.5046,5.22348 -0.60875,2.53524 -2.13005,5.8821 -3.14418,7.8089 -1.01412,1.9268 -1.52122,2.4339 -2.12976,3.04244 -0.60854,0.60854 -1.31848,1.31848 -2.73799,1.82553 -1.41951,0.50705 -3.54933,0.81131 -6.59195,0.96351 -3.04262,0.15219 -6.998,0.15219 -9.83776,1.5e-4 -2.83977,-0.15203 -4.56391,-0.45629 -6.33878,-0.96327 -1.774874,-0.50699 -3.600434,-1.21693 -5.628968,-2.53521 -2.028535,-1.31828 -4.259775,-3.24526 -5.832007,-4.96932 -1.572232,-1.72406 -2.485011,-3.24536 -2.992452,-5.17248 -0.507442,-1.92711 -0.608863,-4.25977 6.998273,-5.32521 z"
             id="path850-1"
             inkscape:path-effect="#path-effect3147"
             inkscape:original-d="m 86.546001,512.34763 c 15.315729,0.20385 30.630469,0.40669 45.944199,0.60854 0.30527,1.7252 0.60953,3.44935 0.9128,5.17252 -1.52036,3.348 -3.04167,6.69486 -4.564,10.04079 -0.50612,0.50812 -1.01322,1.01522 -1.52133,1.52133 -0.70897,0.71097 -1.41891,1.42091 -2.12986,2.12986 -2.12891,0.30527 -4.25873,0.60953 -6.38959,0.9128 -3.95454,10e-4 -7.90992,10e-4 -11.86638,0 -1.72321,-0.30327 -3.44735,-0.60753 -5.17253,-0.9128 -1.824629,-0.70897 -3.650189,-1.41891 -5.476789,-2.12986 -2.23033,-1.92606 -4.46157,-3.85304 -6.69386,-5.78106 -0.91181,-1.52036 -1.82459,-3.04166 -2.73839,-4.56399 -0.10043,-2.33176 -0.20185,-4.66442 -0.30427,-6.99813 z" />
          <path
             style="fill:#ff0000;stroke:#000000;stroke-width:1px;stroke-linecap:butt;stroke-linejoin:miter;stroke-opacity:0"
             d="m 159.82391,496.37412 c 3.70244,-0.76113 11.00483,-0.76113 14.70621,-1.62277 3.70138,-0.86163 3.8028,-2.58577 4.41185,-2.83926 0.60905,-0.25349 1.72467,0.96355 2.23127,2.3327 0.5066,1.36916 0.40518,2.89046 0.15155,4.2595 -0.25363,1.36905 -0.65931,2.58609 -1.01428,3.44803 -0.35497,0.86194 -0.65923,1.36904 -0.96341,1.77459 -0.30418,0.40554 -0.60844,0.7098 -2.33214,0.86194 -1.72371,0.15213 -4.86773,0.15213 -7.809,0.15213 -2.94127,0 -5.67961,0 -7.86018,-0.7602 -2.18057,-0.7602 -3.80329,-2.2815 -4.56451,-3.80286 -0.76121,-1.52137 -0.65979,-3.04267 3.04264,-3.8038 z"
             id="path854-3"
             inkscape:path-effect="#path-effect3149"
             inkscape:original-d="m 156.22296,495.61299 c 7.30339,10e-4 14.60578,10e-4 21.90717,0 0.10242,-1.72321 0.20384,-3.44735 0.30427,-5.17252 1.11666,1.21809 2.23228,2.43513 3.34692,3.65119 -0.10042,1.52236 -0.20184,3.04366 -0.30426,4.56399 -0.4047,1.21809 -0.81038,2.43513 -1.21707,3.6512 -0.30327,0.50812 -0.60753,1.01522 -0.9128,1.52133 -0.30327,0.30527 -0.60753,0.60953 -0.91279,0.9128 -3.14315,0.001 -6.28717,0.001 -9.43226,0 -2.73745,0.001 -5.47579,0.001 -8.21518,0 -1.62179,-1.52036 -3.24451,-3.04166 -4.86826,-4.564 0.10242,-1.52036 0.20384,-3.04166 0.30426,-4.56399 z" />
          <ellipse
             style="fill:#ff0000;fill-rule:evenodd"
             id="path2813-2"
             cx="204.29703"
             cy="508.54431"
             rx="3.6511946"
             ry="4.41186" />
          <ellipse
             style="fill:#ff0000;fill-opacity:0;fill-rule:evenodd;stroke:#ff0000;stroke-width:5.54905;stroke-miterlimit:4;stroke-dasharray:none;stroke-opacity:1"
             id="path2811-0"
             cx="203.07997"
             cy="509.00067"
             rx="17.701582"
             ry="22.569841" />
          <path
             style="fill:#ff0000;fill-opacity:1;stroke:#ff0000;stroke-width:1px;stroke-linecap:butt;stroke-linejoin:miter;stroke-opacity:1"
             d="m 182.4503,507.46427 c -3.36966,10e-4 -6.74032,10e-4 -10.11199,0 0.0727,2.8697 0.14444,5.7383 0.21515,8.60595 1.36364,2.72627 2.72622,5.45143 4.08783,8.17565 1.72222,2.00909 3.44338,4.0171 5.16357,6.02416 1.86566,1.36363 3.73024,2.72622 5.59386,4.08782 2.58284,-0.14243 5.16457,-0.28586 7.74536,-0.43029 1.6505,10e-4 3.29994,10e-4 4.94842,0 -3.44145,-1.79194 -6.88376,-3.58481 -10.32714,-5.37872 -1.93538,-3.15458 -3.87168,-6.31003 -5.80902,-9.46654 -0.35758,-2.29397 -1.50604,-11.61803 -1.50604,-11.61803 z"
             id="path2819-2" />
          <path
             style="fill:#ff0000;stroke:#000000;stroke-width:1px;stroke-linecap:butt;stroke-linejoin:miter;stroke-opacity:0"
             d="m 222.89826,514.13388 55.07807,0.21515 -4.08783,4.08782 -51.85084,-0.43029 z"
             id="path2825-1" />
          <path
             style="fill:#ff0000;stroke:#000000;stroke-width:1px;stroke-linecap:butt;stroke-linejoin:miter;stroke-opacity:0"
             d="m 219.67103,522.95498 73.796,-0.21515 -1.07574,2.79693 -74.44145,0.21515 z"
             id="path2827-2" />
          <path
             style="fill:#ff0000;stroke:#000000;stroke-width:1px;stroke-linecap:butt;stroke-linejoin:miter;stroke-opacity:0.00803211"
             d="m 212.35597,530.91548 86.27463,0.21515 -3.22723,4.08782 -95.31087,-0.86059 z"
             id="path2829-2" />
          <path
             style="fill:#ff0000;fill-opacity:0;stroke:#ff0000;stroke-width:1px;stroke-linecap:butt;stroke-linejoin:miter;stroke-opacity:1"
             d="m 216.70898,425.22931 0.60853,29.51382 -4.86826,4.56399 -26.16689,-0.91279 -13.08345,12.47491"
             id="path3018-6" />
          <text
             xml:space="preserve"
             id="text3277"
             style="font-size:74.6667px;line-height:1.25;font-family:sans-serif;white-space:pre;shape-inside:url(#rect3279);" />
          <text
             xml:space="preserve"
             id="text3283"
             style="font-size:74.6667px;line-height:1.25;font-family:sans-serif;white-space:pre;shape-inside:url(#rect3285);" />
          <text
             xml:space="preserve"
             id="text3295"
             style="font-size:74.6667px;line-height:1.25;font-family:sans-serif;white-space:pre;shape-inside:url(#rect3297);" />
        </g>
      </g>
      <text
         xml:space="preserve"
         id="text3301"
         style="font-style:normal;font-variant:normal;font-weight:bold;font-stretch:normal;font-size:74.6667px;line-height:1.25;font-family:Arial;-inkscape-font-specification:'Arial Bold';white-space:pre;shape-inside:url(#rect3303);fill:#000000;"
         transform="matrix(0.10256433,0,0,0.10934893,245.11769,229.82251)"><tspan
           x="-523.33789"
           y="-193.19481"><tspan
             style="font-style:normal;font-variant:normal;font-weight:normal;font-stretch:normal;font-family:Arial;-inkscape-font-specification:Arial;fill:#000000">ADP</tspan><tspan
             style="shape-inside:url(#rect3303);fill:#000000">
</tspan></tspan><tspan
           x="-523.33789"
           y="-99.861436"><tspan
             style="shape-inside:url(#rect3303);fill:#000000">TRANSPORTES
</tspan></tspan><tspan
           x="-523.33789"
           y="-6.5280615"><tspan
             style="font-style:normal;font-variant:normal;font-weight:normal;font-stretch:normal;font-family:Arial;-inkscape-font-specification:Arial;fill:#000000">&amp;</tspan><tspan
             style="shape-inside:url(#rect3303);fill:#000000"> MUDANÇAS</tspan></tspan></text>
    </g>
  </g>
</svg>
