<?xml version="1.0" encoding="UTF-8" standalone="no"?>
<svg
   xmlns:dc="http://purl.org/dc/elements/1.1/"
   xmlns:cc="http://creativecommons.org/ns#"
   xmlns:rdf="http://www.w3.org/1999/02/22-rdf-syntax-ns#"
   xmlns:svg="http://www.w3.org/2000/svg"
   xmlns="http://www.w3.org/2000/svg"
   xmlns:sodipodi="http://sodipodi.sourceforge.net/DTD/sodipodi-0.dtd"
   xmlns:inkscape="http://www.inkscape.org/namespaces/inkscape"
   height="511pt"
   viewBox="1 -10 511.99995 511"
   width="511pt"
   version="1.1"
   id="svg4"
   sodipodi:docname="simbolo-de-reciclagem.svg"
   inkscape:version="1.0.1 (3bc2e813f5, 2020-09-07)">
  <metadata
     id="metadata10">
    <rdf:RDF>
      <cc:Work
         rdf:about="">
        <dc:format>image/svg+xml</dc:format>
        <dc:type
           rdf:resource="http://purl.org/dc/dcmitype/StillImage" />
        <dc:title></dc:title>
      </cc:Work>
    </rdf:RDF>
  </metadata>
  <defs
     id="defs8" />
  <sodipodi:namedview
     pagecolor="#ffffff"
     bordercolor="#666666"
     borderopacity="1"
     objecttolerance="10"
     gridtolerance="10"
     guidetolerance="10"
     inkscape:pageopacity="0"
     inkscape:pageshadow="2"
     inkscape:window-width="1366"
     inkscape:window-height="705"
     id="namedview6"
     showgrid="false"
     inkscape:pagecheckerboard="true"
     inkscape:zoom="0.78962818"
     inkscape:cx="340.66667"
     inkscape:cy="340.66667"
     inkscape:window-x="-8"
     inkscape:window-y="-8"
     inkscape:window-maximized="1"
     inkscape:current-layer="svg4" />
  <path
     d="m511.902344 343.339844c.039062-.367188.070312-.734375.082031-1.105469.011719-.257813.019531-.515625.015625-.769531-.003906-.167969-.015625-.339844-.023438-.507813-.011718-.316406-.039062-.632812-.074218-.949219-.007813-.085937-.015625-.171874-.027344-.261718-.25-1.972656-.890625-3.90625-1.929688-5.679688-.15625-.269531-.324218-.527344-.496093-.785156l-81.664063-140.449219 11.8125-63.800781c1.066406-5.757812-1.316406-11.609375-6.09375-14.984375-4.78125-3.378906-11.089844-3.667969-16.160156-.742187l-26.703125 15.417968-69.476563-120.636718c-2.675781-4.648438-7.632812-7.515626-13-7.515626h-101.988281c-5.691406-.5585932-11.445312 2.167969-14.480469 7.445313l-78.972656 137.425781-60.519531 21.441406c-5.515625 1.957032-9.394531 6.941407-9.929687 12.769532-.535157 5.828125 2.371093 11.4375 7.441406 14.363281l26.238281 15.152344-73.863281 124.839843c-2.75 4.652344-2.789063 10.425782-.097656 15.113282l51.703124 90c2.660157 4.632812 7.582032 7.5 12.925782 7.527344h.082031c.230469 0 .457031-.011719.683594-.023438h159.574219l48.980468 41.820312c2.769532 2.363282 6.238282 3.59375 9.742188 3.589844 2.128906 0 4.269531-.453125 6.28125-1.378906 5.3125-2.449219 8.71875-7.769531 8.71875-13.621094v-30.460937h145.863281c5.425781 0 10.429687-2.929688 13.085937-7.660157l49.957032-89.042968c1.242187-1.925782 2.019531-4.101563 2.292968-6.363282.007813-.054687.015626-.109374.019532-.167968zm-41.019532-16.695313h-68.171874l-34.183594-58.546875 25.914062 9.261719c1.640625.585937 3.347656.875 5.050782.875 2.597656 0 5.179687-.675781 7.484374-2 3.808594-2.195313 6.464844-5.949219 7.265626-10.273437l5.160156-27.855469zm-178.902343-43.574219c-5.304688-2.457031-11.550781-1.605468-16.007813 2.179688l-48.753906 41.394531h-81.246094l33.871094-57.496093 26.058594 15.042968c5.0625 2.925782 11.363281 2.640625 16.140625-.726562 4.78125-3.367188 7.167969-9.203125 6.121093-14.957032l-11.617187-63.703124 40.214844-69.855469 30.757812 53.140625-26.425781 15.429687c-5.035156 2.941407-7.910156 8.535157-7.371094 14.34375.539063 5.808594 4.398438 10.777344 9.890625 12.738281l61.007813 21.804688 43.347656 74.238281h-67.28125v-29.960937c-.003906-5.84375-3.398438-11.160156-8.707031-13.613282zm7.511719-252.492187 72.644531 126.136719c1.988281 3.449218 5.265625 5.96875 9.109375 7 3.847656 1.035156 7.945312.496094 11.390625-1.496094l11.535156-6.660156-6.429687 34.726562c-.527344 1.480469-.808594 3.035156-.855469 4.613282l-8.9375 48.277343-44.984375-16.078125c-2.203125-1.53125-4.765625-2.445312-7.417969-2.648437l-31.507813-11.261719 11.515626-6.726562c7.132812-4.167969 9.558593-13.320313 5.417968-20.472657l-89.957031-155.410156zm-94.621094 14.730469 34.527344 59.652344-31.179688 54.167968-4.980469-27.304687c-.789062-4.324219-3.433593-8.085938-7.238281-10.289063s-8.386719-2.628906-12.53125-1.160156l-27.292969 9.671875zm-95.375 166.085937c2.042968-3.449219 2.617187-7.570312 1.601562-11.445312s-3.539062-7.183594-7.011718-9.1875l-11.191407-6.460938 34.707031-12.296875c.171876-.058594.335938-.121094.503907-.179687l48.777343-17.28125 8.75 47.984375c.015626 1.75.324219 3.484375.929688 5.121094l6.265625 34.347656-10.863281-6.269532c-7.128906-4.117187-16.246094-1.71875-20.425782 5.378907l-53.320312 90.511719c-1.34375 1.488281-2.390625 3.242187-3.050781 5.179687l-38.300781 65.015625-34.496094-60.054688zm-16.53125 205.226563 35.328125-59.972656h63.585937l-21.816406 18.523437c-3.351562 2.847656-5.289062 7.019531-5.292969 11.417969-.007812 4.394531 1.917969 8.574218 5.261719 11.429687l21.785156 18.601563zm344.796875-.050782h-152.082031c-8.285157 0-15 6.714844-15 15v12.929688l-67.765626-57.859375 67.765626-57.539063v12.546876c0 8.285156 6.714843 15 15 15h185.699218zm0 0"
     id="path2"
     style="fill:#ffffff" />
  <path
     d="m511.902344 343.339844c.039062-.367188.070312-.734375.082031-1.105469.011719-.257813.019531-.515625.015625-.769531-.003906-.167969-.015625-.339844-.023438-.507813-.011718-.316406-.039062-.632812-.074218-.949219-.007813-.085937-.015625-.171874-.027344-.261718-.25-1.972656-.890625-3.90625-1.929688-5.679688-.15625-.269531-.324218-.527344-.496093-.785156l-81.664063-140.449219 11.8125-63.800781c1.066406-5.757812-1.316406-11.609375-6.09375-14.984375-4.78125-3.378906-11.089844-3.667969-16.160156-.742187l-26.703125 15.417968-69.476563-120.636718c-2.675781-4.648438-7.632812-7.515626-13-7.515626h-101.988281c-5.691406-.5585932-11.445312 2.167969-14.480469 7.445313l-78.972656 137.425781-60.519531 21.441406c-5.515625 1.957032-9.394531 6.941407-9.929687 12.769532-.535157 5.828125 2.371093 11.4375 7.441406 14.363281l26.238281 15.152344-73.863281 124.839843c-2.75 4.652344-2.789063 10.425782-.097656 15.113282l51.703124 90c2.660157 4.632812 7.582032 7.5 12.925782 7.527344h.082031c.230469 0 .457031-.011719.683594-.023438h159.574219l48.980468 41.820312c2.769532 2.363282 6.238282 3.59375 9.742188 3.589844 2.128906 0 4.269531-.453125 6.28125-1.378906 5.3125-2.449219 8.71875-7.769531 8.71875-13.621094v-30.460937h145.863281c5.425781 0 10.429687-2.929688 13.085937-7.660157l49.957032-89.042968c1.242187-1.925782 2.019531-4.101563 2.292968-6.363282.007813-.054687.015626-.109374.019532-.167968zm-41.019532-16.695313h-68.171874l-34.183594-58.546875 25.914062 9.261719c1.640625.585937 3.347656.875 5.050782.875 2.597656 0 5.179687-.675781 7.484374-2 3.808594-2.195313 6.464844-5.949219 7.265626-10.273437l5.160156-27.855469zm-178.902343-43.574219c-5.304688-2.457031-11.550781-1.605468-16.007813 2.179688l-48.753906 41.394531h-81.246094l33.871094-57.496093 26.058594 15.042968c5.0625 2.925782 11.363281 2.640625 16.140625-.726562 4.78125-3.367188 7.167969-9.203125 6.121093-14.957032l-11.617187-63.703124 40.214844-69.855469 30.757812 53.140625-26.425781 15.429687c-5.035156 2.941407-7.910156 8.535157-7.371094 14.34375.539063 5.808594 4.398438 10.777344 9.890625 12.738281l61.007813 21.804688 43.347656 74.238281h-67.28125v-29.960937c-.003906-5.84375-3.398438-11.160156-8.707031-13.613282zm7.511719-252.492187 72.644531 126.136719c1.988281 3.449218 5.265625 5.96875 9.109375 7 3.847656 1.035156 7.945312.496094 11.390625-1.496094l11.535156-6.660156-6.429687 34.726562c-.527344 1.480469-.808594 3.035156-.855469 4.613282l-8.9375 48.277343-44.984375-16.078125c-2.203125-1.53125-4.765625-2.445312-7.417969-2.648437l-31.507813-11.261719 11.515626-6.726562c7.132812-4.167969 9.558593-13.320313 5.417968-20.472657l-89.957031-155.410156zm-94.621094 14.730469 34.527344 59.652344-31.179688 54.167968-4.980469-27.304687c-.789062-4.324219-3.433593-8.085938-7.238281-10.289063s-8.386719-2.628906-12.53125-1.160156l-27.292969 9.671875zm-95.375 166.085937c2.042968-3.449219 2.617187-7.570312 1.601562-11.445312s-3.539062-7.183594-7.011718-9.1875l-11.191407-6.460938 34.707031-12.296875c.171876-.058594.335938-.121094.503907-.179687l48.777343-17.28125 8.75 47.984375c.015626 1.75.324219 3.484375.929688 5.121094l6.265625 34.347656-10.863281-6.269532c-7.128906-4.117187-16.246094-1.71875-20.425782 5.378907l-53.320312 90.511719c-1.34375 1.488281-2.390625 3.242187-3.050781 5.179687l-38.300781 65.015625-34.496094-60.054688zm-16.53125 205.226563 35.328125-59.972656h63.585937l-21.816406 18.523437c-3.351562 2.847656-5.289062 7.019531-5.292969 11.417969-.007812 4.394531 1.917969 8.574218 5.261719 11.429687l21.785156 18.601563zm344.796875-.050782h-152.082031c-8.285157 0-15 6.714844-15 15v12.929688l-67.765626-57.859375 67.765626-57.539063v12.546876c0 8.285156 6.714843 15 15 15h185.699218zm0 0"
     id="path12"
     style="fill:#ffffff" />
</svg>
