<?xml version="1.0" encoding="UTF-8" standalone="no"?>
<svg
   xmlns:dc="http://purl.org/dc/elements/1.1/"
   xmlns:cc="http://creativecommons.org/ns#"
   xmlns:rdf="http://www.w3.org/1999/02/22-rdf-syntax-ns#"
   xmlns:svg="http://www.w3.org/2000/svg"
   xmlns="http://www.w3.org/2000/svg"
   xmlns:sodipodi="http://sodipodi.sourceforge.net/DTD/sodipodi-0.dtd"
   xmlns:inkscape="http://www.inkscape.org/namespaces/inkscape"
   width="500"
   height="400"
   viewBox="0 0 132.29166 105.83334"
   version="1.1"
   id="svg1471"
   inkscape:version="1.0.1 (3bc2e813f5, 2020-09-07)"
   sodipodi:docname="slogan.svg">
  <defs
     id="defs1465">
    <rect
       x="9.0714286"
       y="6.8035714"
       width="188.9881"
       height="88.446429"
       id="rect2137" />
    <rect
       x="-23.434524"
       y="-3.0238095"
       width="220.7381"
       height="162.52976"
       id="rect2118" />
    <rect
       x="-38.553571"
       y="11.339286"
       width="269.11905"
       height="139.09524"
       id="rect2112" />
    <rect
       x="-20.410714"
       y="26.458333"
       width="244.92857"
       height="96.761905"
       id="rect2106" />
    <rect
       x="6.8035714"
       y="9.0714286"
       width="216.20238"
       height="142.11905"
       id="rect2036" />
  </defs>
  <sodipodi:namedview
     id="base"
     pagecolor="#ffffff"
     bordercolor="#666666"
     borderopacity="1.0"
     inkscape:pageopacity="0.0"
     inkscape:pageshadow="2"
     inkscape:zoom="0.49497475"
     inkscape:cx="536.46161"
     inkscape:cy="242.40367"
     inkscape:document-units="mm"
     inkscape:current-layer="layer1"
     inkscape:document-rotation="0"
     showgrid="false"
     units="px"
     inkscape:window-width="1366"
     inkscape:window-height="728"
     inkscape:window-x="0"
     inkscape:window-y="0"
     inkscape:window-maximized="0"
     inkscape:pagecheckerboard="true" />
  <metadata
     id="metadata1468">
    <rdf:RDF>
      <cc:Work
         rdf:about="">
        <dc:format>image/svg+xml</dc:format>
        <dc:type
           rdf:resource="http://purl.org/dc/dcmitype/StillImage" />
        <dc:title></dc:title>
      </cc:Work>
    </rdf:RDF>
  </metadata>
  <g
     inkscape:label="Layer 1"
     inkscape:groupmode="layer"
     id="layer1">
    <text
       xml:space="preserve"
       id="text2104"
       style="line-height:1.25;font-family:sans-serif;font-size:4.58611111px;white-space:pre;shape-inside:url(#rect2106);" />
    <text
       xml:space="preserve"
       id="text2110"
       style="line-height:1.25;font-family:sans-serif;font-size:19.75555556px;white-space:pre;shape-inside:url(#rect2112);" />
    <text
       xml:space="preserve"
       id="text2135"
       style="line-height:1.25;font-family:sans-serif;font-size:19.75555556px;white-space:pre;shape-inside:url(#rect2137);" />
    <path
       d="M 1.4543046,28.846364 H 7.7897914 L 7.5273475,30.186209 H 5.2436255 L 4.1662247,35.720551 H 2.3935773 L 3.4709786,30.186209 H 1.1872568 Z"
       style="font-style:italic;font-variant:normal;font-weight:bold;font-stretch:normal;font-size:19.7556px;line-height:1.25;font-family:sans-serif;-inkscape-font-specification:'sans-serif Bold Italic';white-space:pre;stroke-width:0.477311;fill:#666666"
       id="path2149" />
    <path
       d="m 10.630631,31.894396 q 0.60316,0 0.911647,-0.280861 0.313091,-0.280861 0.313091,-0.824165 0,-0.340717 -0.216401,-0.497262 -0.211797,-0.16115 -0.672225,-0.16115 h -0.73208 L 9.8847377,31.894396 Z M 9.6499195,33.119134 9.1388446,35.720551 H 7.3661975 l 1.339845,-6.874187 h 2.6198345 q 1.132652,0 1.717395,0.423594 0.584744,0.423593 0.584744,1.247759 0,0.833375 -0.460428,1.372075 -0.460428,0.538701 -1.247759,0.616973 0.359133,0.07367 0.598556,0.368343 0.239422,0.290069 0.418989,0.89323 l 0.584743,1.952213 H 11.758679 L 11.243,34.012364 q -0.156546,-0.511075 -0.382155,-0.69985 -0.221006,-0.19338 -0.644599,-0.19338 z"
       style="font-style:italic;font-variant:normal;font-weight:bold;font-stretch:normal;font-size:19.7556px;line-height:1.25;font-family:sans-serif;-inkscape-font-specification:'sans-serif Bold Italic';white-space:pre;stroke-width:0.477311;fill:#666666"
       id="path2151" />
    <path
       d="m 19.061065,34.468188 h -2.74415 l -0.681433,1.252363 h -1.81869 l 3.88601,-6.874187 h 2.025883 l 1.215529,6.874187 h -1.685166 z m -2.07653,-1.24776 h 1.846315 l -0.414385,-2.647459 z"
       style="font-style:italic;font-variant:normal;font-weight:bold;font-stretch:normal;font-size:19.7556px;line-height:1.25;font-family:sans-serif;-inkscape-font-specification:'sans-serif Bold Italic';white-space:pre;stroke-width:0.477311;fill:#666666"
       id="path2153" />
    <path
       d="m 23.26477,28.846364 h 1.979839 l 1.574664,4.760824 0.925459,-4.760824 h 1.675958 l -1.339845,6.874187 h -1.97984 l -1.574663,-4.760823 -0.920856,4.760823 h -1.680561 z"
       style="font-style:italic;font-variant:normal;font-weight:bold;font-stretch:normal;font-size:19.7556px;line-height:1.25;font-family:sans-serif;-inkscape-font-specification:'sans-serif Bold Italic';white-space:pre;stroke-width:0.477311;fill:#666666"
       id="path2155" />
    <path
       d="m 35.889699,29.062765 -0.285465,1.454952 q -0.520283,-0.257839 -1.026754,-0.382155 -0.506471,-0.12892 -0.98992,-0.12892 -0.663016,0 -1.035962,0.207193 -0.368342,0.207192 -0.368342,0.575535 0,0.234818 0.161149,0.368342 0.165754,0.12892 0.676829,0.253235 l 0.727476,0.179567 q 0.911647,0.230214 1.335241,0.66762 0.428198,0.432802 0.428198,1.123444 0,1.11884 -0.851792,1.795669 -0.847187,0.676829 -2.279118,0.676829 -0.66762,0 -1.330636,-0.124316 -0.658412,-0.124316 -1.289198,-0.368342 l 0.280861,-1.496391 q 0.612369,0.35453 1.187904,0.529492 0.580139,0.174963 1.141861,0.174963 0.607765,0 0.985315,-0.248631 0.382155,-0.248631 0.382155,-0.635391 0,-0.253235 -0.170358,-0.391363 -0.170358,-0.142733 -0.745893,-0.29007 L 32.100378,32.82446 q -0.801144,-0.197983 -1.192507,-0.626181 -0.391364,-0.428198 -0.391364,-1.109631 0,-1.072797 0.819561,-1.717396 0.824166,-0.649203 2.214658,-0.649203 0.557118,0 1.141861,0.08748 0.589348,0.08288 1.197112,0.253235 z"
       style="font-style:italic;font-variant:normal;font-weight:bold;font-stretch:normal;font-size:19.7556px;line-height:1.25;font-family:sans-serif;-inkscape-font-specification:'sans-serif Bold Italic';white-space:pre;stroke-width:0.477311;fill:#666666"
       id="path2157" />
    <path
       d="m 37.947813,28.846364 h 2.942134 q 1.082005,0 1.68977,0.497262 0.612369,0.492658 0.612369,1.372075 0,0.538701 -0.202588,1.026754 -0.202589,0.483449 -0.58014,0.847187 -0.40978,0.391364 -0.976107,0.570931 -0.566326,0.174962 -1.422721,0.174962 h -1.169487 l -0.460428,2.385016 h -1.772647 z m 1.52862,1.284594 -0.37755,1.919984 h 0.980711 q 0.626181,0 0.957689,-0.294674 0.331509,-0.294674 0.331509,-0.856396 0,-0.372946 -0.239423,-0.57093 -0.234818,-0.197984 -0.681433,-0.197984 z"
       style="font-style:italic;font-variant:normal;font-weight:bold;font-stretch:normal;font-size:19.7556px;line-height:1.25;font-family:sans-serif;-inkscape-font-specification:'sans-serif Bold Italic';white-space:pre;stroke-width:0.477311;fill:#666666"
       id="path2159" />
    <path
       d="m 49.122396,31.664182 q 0,-0.810352 -0.368342,-1.233946 -0.363738,-0.423594 -1.058984,-0.423594 -0.920856,0 -1.547038,0.82877 -0.621577,0.824166 -0.621577,2.067321 0,0.791936 0.363738,1.229343 0.363738,0.437406 1.012941,0.437406 0.529492,0 0.939273,-0.221006 0.414385,-0.225609 0.704454,-0.663016 0.276257,-0.418989 0.423594,-0.943877 0.151941,-0.524887 0.151941,-1.077401 z m -1.169487,-2.942133 q 1.372075,0 2.205449,0.76431 0.837979,0.759706 0.837979,1.989048 0,0.837979 -0.257839,1.583872 -0.253236,0.745893 -0.741289,1.339844 -0.598556,0.732081 -1.418118,1.095819 -0.814957,0.359134 -1.88315,0.359134 -1.36747,0 -2.200844,-0.759706 -0.833375,-0.759706 -0.833375,-1.993653 0,-0.842583 0.253235,-1.588476 0.253236,-0.745893 0.745893,-1.344449 0.589348,-0.727476 1.404305,-1.08661 0.819562,-0.359133 1.887754,-0.359133 z"
       style="font-style:italic;font-variant:normal;font-weight:bold;font-stretch:normal;font-size:19.7556px;line-height:1.25;font-family:sans-serif;-inkscape-font-specification:'sans-serif Bold Italic';white-space:pre;stroke-width:0.477311;fill:#666666"
       id="path2161" />
    <path
       d="m 54.799471,31.894396 q 0.60316,0 0.911647,-0.280861 0.313091,-0.280861 0.313091,-0.824165 0,-0.340717 -0.216401,-0.497262 -0.211797,-0.16115 -0.672225,-0.16115 h -0.73208 l -0.349925,1.763438 z m -0.980711,1.224738 -0.511075,2.601417 h -1.772647 l 1.339845,-6.874187 h 2.619834 q 1.132652,0 1.717395,0.423594 0.584744,0.423593 0.584744,1.247759 0,0.833375 -0.460428,1.372075 -0.460428,0.538701 -1.247759,0.616973 0.359133,0.07367 0.598556,0.368343 0.239422,0.290069 0.418989,0.89323 l 0.584743,1.952213 H 55.927519 L 55.41184,34.012364 q -0.156546,-0.511075 -0.382155,-0.69985 -0.221006,-0.19338 -0.644599,-0.19338 z"
       style="font-style:italic;font-variant:normal;font-weight:bold;font-stretch:normal;font-size:19.7556px;line-height:1.25;font-family:sans-serif;-inkscape-font-specification:'sans-serif Bold Italic';white-space:pre;stroke-width:0.477311;fill:#666666"
       id="path2163" />
    <path
       d="m 58.892673,28.846364 h 6.335488 l -0.262444,1.339845 h -2.283722 l -1.077401,5.534342 h -1.772646 l 1.0774,-5.534342 h -2.283723 z"
       style="font-style:italic;font-variant:normal;font-weight:bold;font-stretch:normal;font-size:19.7556px;line-height:1.25;font-family:sans-serif;-inkscape-font-specification:'sans-serif Bold Italic';white-space:pre;stroke-width:0.477311;fill:#666666"
       id="path2165" />
    <path
       d="m 66.144412,28.846364 h 4.779241 l -0.262444,1.339845 h -3.006595 l -0.248631,1.27999 h 2.831632 l -0.267046,1.339844 h -2.827026 l -0.303885,1.574663 h 3.103284 l -0.253237,1.339845 h -4.885138 z"
       style="font-style:italic;font-variant:normal;font-weight:bold;font-stretch:normal;font-size:19.7556px;line-height:1.25;font-family:sans-serif;-inkscape-font-specification:'sans-serif Bold Italic';white-space:pre;stroke-width:0.477311;fill:#666666"
       id="path2167" />
    <path
       d="m 22.836573,40.858926 -0.179567,0.907043 q -0.465032,-0.248632 -0.925459,-0.372947 -0.455824,-0.12892 -0.884022,-0.12892 -0.833374,0 -1.326032,0.363738 -0.492658,0.363738 -0.492658,0.966899 0,0.331508 0.179567,0.511074 0.184171,0.174963 0.939273,0.377551 l 0.557117,0.138128 q 0.943877,0.244027 1.31222,0.621578 0.368342,0.372947 0.368342,1.049775 0,1.040568 -0.819562,1.694375 -0.814957,0.653807 -2.150198,0.653807 -0.547909,0 -1.100422,-0.110502 -0.552513,-0.105899 -1.109631,-0.326904 l 0.188775,-0.95769 q 0.511075,0.317695 1.02215,0.478845 0.515679,0.16115 1.026754,0.16115 0.870209,0 1.395097,-0.38676 0.524887,-0.386759 0.524887,-1.008336 0,-0.414385 -0.211797,-0.626183 -0.207192,-0.2164 -0.897834,-0.391363 l -0.557117,-0.142733 q -0.953086,-0.248631 -1.303011,-0.57093 -0.345321,-0.326904 -0.345321,-0.911647 0,-1.026754 0.787332,-1.680562 0.791936,-0.658411 2.058112,-0.658411 0.492658,0 0.976107,0.08748 0.483449,0.08748 0.966898,0.262444 z"
       style="font-style:italic;font-variant:normal;font-weight:normal;font-stretch:normal;font-size:19.7556px;line-height:1.25;font-family:sans-serif;-inkscape-font-specification:'sans-serif Italic';white-space:pre;stroke-width:0.477311;fill:#666666"
       id="path2169" />
    <path
       d="m 24.595406,40.633316 h 0.934668 l -0.810353,4.17608 q -0.05065,0.280861 -0.07367,0.465032 -0.01841,0.179567 -0.01841,0.317696 0,0.63539 0.35453,0.966898 0.354529,0.326904 1.040566,0.326904 0.888626,0 1.381284,-0.488054 0.497262,-0.488053 0.709059,-1.588476 l 0.810353,-4.17608 h 0.934668 l -0.82877,4.291187 q -0.271652,1.390492 -1.031358,2.053508 -0.759706,0.663016 -2.081134,0.663016 -1.031359,0 -1.634519,-0.515679 -0.598556,-0.520283 -0.598556,-1.408909 0,-0.16115 0.02302,-0.359134 0.02302,-0.202588 0.06906,-0.432802 z"
       style="font-style:italic;font-variant:normal;font-weight:normal;font-stretch:normal;font-size:19.7556px;line-height:1.25;font-family:sans-serif;-inkscape-font-specification:'sans-serif Italic';white-space:pre;stroke-width:0.477311;fill:#666666"
       id="path2171" />
    <path
       d="m 33.509289,40.633316 h 1.05438 l 1.275385,6.874187 h -0.971503 l -0.285465,-1.763438 h -3.094075 l -0.971503,1.763438 h -0.980711 z m 0.336112,0.916251 -1.929192,3.420979 h 2.523144 z"
       style="font-style:italic;font-variant:normal;font-weight:normal;font-stretch:normal;font-size:19.7556px;line-height:1.25;font-family:sans-serif;-inkscape-font-specification:'sans-serif Italic';white-space:pre;stroke-width:0.477311;fill:#666666"
       id="path2173" />
    <path
       d="m 26.252946,52.420268 h 2.177824 l 0.884021,3.651192 2.320556,-3.651192 h 2.265305 l -1.339845,6.874187 h -1.680562 l 0.980712,-5.073914 -2.385016,3.752486 h -0.953086 l -0.948481,-3.752486 -0.980711,5.073914 h -1.680562 z"
       style="font-style:italic;font-variant:normal;font-weight:bold;font-stretch:normal;font-size:19.7556px;line-height:1.25;font-family:sans-serif;-inkscape-font-specification:'sans-serif Bold Italic';white-space:pre;stroke-width:0.477311;fill:#666666"
       id="path2175" />
    <path
       d="m 35.636465,52.420268 h 1.772647 l -0.801144,4.116224 q -0.04604,0.221006 -0.06907,0.391364 -0.01841,0.170358 -0.01841,0.299278 0,0.45122 0.239422,0.676829 0.244027,0.221005 0.722872,0.221005 0.644599,0 0.98992,-0.359133 0.34532,-0.363738 0.511075,-1.224738 l 0.801144,-4.120829 h 1.772647 l -0.801144,4.120829 q -0.299279,1.519412 -1.137257,2.205449 -0.833374,0.681433 -2.38962,0.681433 -1.220134,0 -1.855524,-0.520283 -0.635391,-0.524888 -0.635391,-1.519412 0,-0.165754 0.02302,-0.368343 0.02302,-0.207192 0.07367,-0.478844 z"
       style="font-style:italic;font-variant:normal;font-weight:bold;font-stretch:normal;font-size:19.7556px;line-height:1.25;font-family:sans-serif;-inkscape-font-specification:'sans-serif Bold Italic';white-space:pre;stroke-width:0.477311;fill:#666666"
       id="path2177" />
    <path
       d="m 44.812791,53.760113 -0.824166,4.194497 h 0.635391 q 1.23855,0 1.961422,-0.695246 0.722872,-0.695246 0.722872,-1.878545 0,-0.801145 -0.474241,-1.210926 -0.469636,-0.40978 -1.3997,-0.40978 z m -1.519412,-1.339845 h 1.864733 q 1.335241,0 2.002861,0.16115 0.66762,0.156545 1.109631,0.529492 0.446615,0.372946 0.672225,0.907042 0.225609,0.529492 0.225609,1.201717 0,0.934668 -0.386759,1.763438 -0.382155,0.824166 -1.077401,1.385888 -0.607765,0.501867 -1.413514,0.713663 -0.801144,0.211797 -2.467893,0.211797 h -1.869337 z"
       style="font-style:italic;font-variant:normal;font-weight:bold;font-stretch:normal;font-size:19.7556px;line-height:1.25;font-family:sans-serif;-inkscape-font-specification:'sans-serif Bold Italic';white-space:pre;stroke-width:0.477311;fill:#666666"
       id="path2179" />
    <path
       d="m 54.214726,58.042092 h -2.74415 l -0.681433,1.252363 h -1.81869 l 3.886011,-6.874187 h 2.025882 l 1.21553,6.874187 H 54.41271 Z m -2.07653,-1.24776 h 1.846316 l -0.414385,-2.64746 z"
       style="font-style:italic;font-variant:normal;font-weight:bold;font-stretch:normal;font-size:19.7556px;line-height:1.25;font-family:sans-serif;-inkscape-font-specification:'sans-serif Bold Italic';white-space:pre;stroke-width:0.477311;fill:#666666"
       id="path2181" />
    <path
       d="m 58.418431,52.420268 h 1.979841 l 1.574663,4.760824 0.925458,-4.760824 h 1.675958 l -1.339845,6.874187 h -1.979838 l -1.574663,-4.760824 -0.920857,4.760824 h -1.680561 z"
       style="font-style:italic;font-variant:normal;font-weight:bold;font-stretch:normal;font-size:19.7556px;line-height:1.25;font-family:sans-serif;-inkscape-font-specification:'sans-serif Bold Italic';white-space:pre;stroke-width:0.477311;fill:#666666"
       id="path2183" />
    <path
       d="m 70.486241,58.972156 q -0.635387,0.225609 -1.22013,0.340716 -0.584744,0.115107 -1.109634,0.115107 -1.385886,0 -2.214655,-0.759706 -0.828769,-0.759706 -0.828769,-2.012069 0,-0.824166 0.26244,-1.551642 0.262444,-0.73208 0.77352,-1.335241 0.603159,-0.709058 1.450347,-1.091213 0.85179,-0.382156 1.832502,-0.382156 0.534096,0 1.072799,0.12892 0.538702,0.124316 1.095819,0.382155 l -0.285465,1.422722 q -0.442014,-0.336112 -0.888629,-0.492658 -0.446615,-0.156545 -0.95769,-0.156545 -1.063587,0 -1.781854,0.819561 -0.718267,0.819562 -0.718267,2.048904 0,0.791936 0.442009,1.243155 0.442014,0.451219 1.220135,0.451219 0.465035,0 0.985318,-0.165753 0.524884,-0.170359 1.174089,-0.529493 z m -1.731206,0.322299 q 0.170357,0.239422 0.248631,0.442011 0.07827,0.202588 0.07827,0.395968 0,0.478845 -0.349926,0.741288 -0.34532,0.267048 -0.976105,0.267048 -0.225611,0 -0.451221,-0.03223 -0.221005,-0.02763 -0.455823,-0.08748 l 0.133523,-0.718267 q 0.184171,0.07827 0.368341,0.119711 0.188777,0.04144 0.36374,0.04144 0.303879,0 0.478843,-0.133524 0.174963,-0.12892 0.174963,-0.345321 0,-0.119711 -0.06446,-0.280861 -0.05985,-0.156545 -0.202585,-0.409781 z"
       style="font-style:italic;font-variant:normal;font-weight:bold;font-stretch:normal;font-size:19.7556px;line-height:1.25;font-family:sans-serif;-inkscape-font-specification:'sans-serif Bold Italic';white-space:pre;stroke-width:0.477311;fill:#666666"
       id="path2185" />
    <path
       d="m 76.324473,58.042092 h -2.744151 l -0.681432,1.252363 h -1.818688 l 3.886007,-6.874187 h 2.025883 l 1.21553,6.874187 h -1.685165 z m -2.076531,-1.24776 h 1.846314 l -0.414382,-2.64746 z"
       style="font-style:italic;font-variant:normal;font-weight:bold;font-stretch:normal;font-size:19.7556px;line-height:1.25;font-family:sans-serif;-inkscape-font-specification:'sans-serif Bold Italic';white-space:pre;stroke-width:0.477311;fill:#666666"
       id="path2187" />
    <path
       d="m 43.256546,64.73671 -0.188776,0.980711 q -0.442011,-0.446615 -0.939272,-0.663016 -0.492658,-0.216401 -1.068193,-0.216401 -0.787331,0 -1.385888,0.377551 -0.593951,0.377551 -1.026753,1.151069 -0.276257,0.497262 -0.423594,1.05438 -0.142733,0.552513 -0.142733,1.114235 0,0.939273 0.48345,1.43193 0.488053,0.492658 1.413513,0.492658 0.639994,0 1.229342,-0.202588 0.589347,-0.207192 1.146465,-0.616973 l -0.216401,1.100422 q -0.547909,0.234819 -1.109631,0.35453 -0.557118,0.119711 -1.118839,0.119711 -1.321428,0 -2.067321,-0.718267 -0.741289,-0.718268 -0.741289,-1.998257 0,-0.819561 0.280861,-1.611497 0.285465,-0.791936 0.814957,-1.445744 0.561722,-0.695245 1.27999,-1.026754 0.722871,-0.331508 1.680561,-0.331508 0.589347,0 1.114235,0.165754 0.529492,0.16115 0.985316,0.488054 z"
       style="font-style:italic;font-variant:normal;font-weight:normal;font-stretch:normal;font-size:19.7556px;line-height:1.25;font-family:sans-serif;-inkscape-font-specification:'sans-serif Italic';white-space:pre;stroke-width:0.477311;fill:#666666"
       id="path2189" />
    <path
       d="m 47.589169,64.838004 q -0.76431,0 -1.349053,0.372947 -0.584743,0.368342 -1.017545,1.128048 -0.276257,0.483449 -0.423594,1.026754 -0.142733,0.543304 -0.142733,1.095818 0,0.95769 0.455824,1.477973 0.460428,0.520283 1.298406,0.520283 0.755102,0 1.34445,-0.372946 0.593951,-0.377551 1.012941,-1.11884 0.280861,-0.497262 0.428198,-1.040567 0.147336,-0.547909 0.147336,-1.091213 0,-0.953086 -0.460428,-1.47337 -0.460427,-0.524887 -1.293802,-0.524887 z m -1.206321,6.376925 q -1.266176,0 -1.993652,-0.750497 -0.722871,-0.750497 -0.722871,-2.053508 0,-0.745893 0.280861,-1.524016 0.285465,-0.778123 0.782727,-1.385888 0.584743,-0.713663 1.303011,-1.063588 0.718267,-0.35453 1.583871,-0.35453 1.261572,0 1.989048,0.745893 0.727476,0.741289 0.727476,2.025883 0,0.791936 -0.276256,1.556246 -0.276257,0.76431 -0.791936,1.385888 -0.589348,0.718267 -1.303011,1.068192 -0.709059,0.349925 -1.579268,0.349925 z"
       style="font-style:italic;font-variant:normal;font-weight:normal;font-stretch:normal;font-size:19.7556px;line-height:1.25;font-family:sans-serif;-inkscape-font-specification:'sans-serif Italic';white-space:pre;stroke-width:0.477311;fill:#666666"
       id="path2191" />
    <path
       d="m 52.303951,64.207218 h 1.395097 l 0.801144,4.631904 2.661272,-4.631904 h 1.431931 l -1.339845,6.874187 h -0.902438 l 1.169486,-6.027 -2.698107,4.705572 h -0.907043 l -0.874812,-4.723989 -1.169487,6.045417 h -0.907043 z"
       style="font-style:italic;font-variant:normal;font-weight:normal;font-stretch:normal;font-size:19.7556px;line-height:1.25;font-family:sans-serif;-inkscape-font-specification:'sans-serif Italic';white-space:pre;stroke-width:0.477311;fill:#666666"
       id="path2193" />
    <path
       d="m 45.973069,76.210572 -0.285466,1.454952 Q 45.16732,77.407685 44.66085,77.28337 q -0.506471,-0.128922 -0.98992,-0.128922 -0.663016,0 -1.035963,0.207196 -0.368342,0.207191 -0.368342,0.575532 0,0.234817 0.16115,0.368345 0.165754,0.128917 0.676828,0.253233 l 0.727476,0.179569 q 0.911647,0.230211 1.335241,0.667619 0.428198,0.432802 0.428198,1.123442 0,1.11884 -0.851792,1.795672 -0.847187,0.676826 -2.279117,0.676826 -0.667621,0 -1.330637,-0.124315 -0.658411,-0.124316 -1.289198,-0.368341 l 0.280862,-1.496393 q 0.612369,0.354532 1.187903,0.529495 0.580139,0.174963 1.141861,0.174963 0.607765,0 0.985316,-0.248631 0.382155,-0.248631 0.382155,-0.635392 0,-0.253237 -0.170358,-0.391366 -0.170359,-0.14273 -0.745893,-0.290066 l -0.722872,-0.179569 q -0.801145,-0.197984 -1.192508,-0.62618 -0.391364,-0.4282 -0.391364,-1.109633 0,-1.072794 0.819562,-1.717395 0.824165,-0.649203 2.214657,-0.649203 0.557118,0 1.141861,0.08748 0.589348,0.08288 1.197113,0.253236 z"
       style="font-style:italic;font-variant:normal;font-weight:bold;font-stretch:normal;font-size:19.7556px;line-height:1.25;font-family:sans-serif;-inkscape-font-specification:'sans-serif Bold Italic';white-space:pre;stroke-width:0.477311;fill:#666666"
       id="path2195" />
    <path
       d="m 48.031182,75.994172 h 4.779241 l -0.262444,1.339845 h -3.006594 l -0.248631,1.27999 h 2.831631 l -0.267048,1.339845 h -2.827026 l -0.303883,1.574663 h 3.103284 l -0.253236,1.339844 h -4.885139 z"
       style="font-style:italic;font-variant:normal;font-weight:bold;font-stretch:normal;font-size:19.7556px;line-height:1.25;font-family:sans-serif;-inkscape-font-specification:'sans-serif Bold Italic';white-space:pre;stroke-width:0.477311;fill:#666666"
       id="path2197" />
    <path
       d="m 59.357705,82.357284 q -0.672225,0.326905 -1.395096,0.488055 -0.722872,0.156543 -1.547038,0.156543 -1.46416,0 -2.302139,-0.741287 -0.837979,-0.745894 -0.837979,-2.03049 0,-0.83337 0.262444,-1.560849 0.262444,-0.73208 0.782728,-1.335239 0.63539,-0.736686 1.49639,-1.100423 0.865604,-0.363738 1.975235,-0.363738 0.616974,0 1.243155,0.12892 0.626181,0.12892 1.233946,0.382155 l -0.271652,1.422722 q -0.561722,-0.326906 -1.100422,-0.488055 -0.534096,-0.16115 -1.077401,-0.16115 -1.187904,0 -1.933797,0.79194 -0.745893,0.791935 -0.745893,2.035086 0,0.824168 0.432802,1.27999 0.437407,0.455827 1.229343,0.455827 0.257839,0 0.515679,-0.03222 0.257839,-0.03685 0.520283,-0.110503 l 0.262444,-1.335239 h -1.082006 l 0.22561,-1.187907 h 2.753358 z"
       style="font-style:italic;font-variant:normal;font-weight:bold;font-stretch:normal;font-size:19.7556px;line-height:1.25;font-family:sans-serif;-inkscape-font-specification:'sans-serif Bold Italic';white-space:pre;stroke-width:0.477311;fill:#666666"
       id="path2199" />
    <path
       d="m 62.212359,75.994172 h 1.772646 l -0.801142,4.116224 q -0.04606,0.221004 -0.06907,0.391366 -0.01842,0.170357 -0.01842,0.299274 0,0.451221 0.239419,0.676831 0.24403,0.221005 0.722873,0.221005 0.644599,0 0.989919,-0.359134 0.345325,-0.363739 0.511075,-1.224736 l 0.801148,-4.12083 h 1.772646 l -0.801147,4.12083 q -0.299274,1.519409 -1.137255,2.205448 -0.833375,0.681432 -2.389619,0.681432 -1.220135,0 -1.855526,-0.520283 -0.635392,-0.524889 -0.635392,-1.519414 0,-0.165751 0.02301,-0.36834 0.02301,-0.207192 0.07367,-0.478843 z"
       style="font-style:italic;font-variant:normal;font-weight:bold;font-stretch:normal;font-size:19.7556px;line-height:1.25;font-family:sans-serif;-inkscape-font-specification:'sans-serif Bold Italic';white-space:pre;stroke-width:0.477311;fill:#666666"
       id="path2201" />
    <path
       d="m 71.793863,79.042203 q 0.603158,0 0.911644,-0.28086 0.313092,-0.280864 0.313092,-0.824167 0,-0.340714 -0.216398,-0.497263 -0.211797,-0.16115 -0.672226,-0.16115 h -0.73208 l -0.349926,1.76344 z m -0.980712,1.224736 -0.511076,2.60142 h -1.772646 l 1.339845,-6.874187 h 2.619835 q 1.132649,0 1.717393,0.423593 0.584744,0.423596 0.584744,1.247759 0,0.833375 -0.460429,1.372077 -0.460428,0.538698 -1.247757,0.616972 0.359134,0.07367 0.598557,0.368341 0.239419,0.290071 0.418989,0.89323 l 0.584744,1.952215 h -1.76344 l -0.515681,-1.70819 Q 72.249685,80.649098 72.024074,80.460322 71.80307,80.266939 71.379476,80.266939 Z"
       style="font-style:italic;font-variant:normal;font-weight:bold;font-stretch:normal;font-size:19.7556px;line-height:1.25;font-family:sans-serif;-inkscape-font-specification:'sans-serif Bold Italic';white-space:pre;stroke-width:0.477311;fill:#666666"
       id="path2203" />
    <path
       d="m 80.224288,81.615996 h -2.744145 l -0.681438,1.252363 h -1.818688 l 3.886012,-6.874187 h 2.025884 l 1.215529,6.874187 h -1.68517 z m -2.076526,-1.247762 h 1.846315 L 79.57969,77.720777 Z"
       style="font-style:italic;font-variant:normal;font-weight:bold;font-stretch:normal;font-size:19.7556px;line-height:1.25;font-family:sans-serif;-inkscape-font-specification:'sans-serif Bold Italic';white-space:pre;stroke-width:0.477311;fill:#666666"
       id="path2205" />
    <path
       d="m 84.427998,75.994172 h 1.979838 l 1.574662,4.760822 0.925458,-4.760822 h 1.675958 l -1.339845,6.874187 h -1.979837 l -1.574663,-4.760822 -0.920857,4.760822 h -1.680559 z"
       style="font-style:italic;font-variant:normal;font-weight:bold;font-stretch:normal;font-size:19.7556px;line-height:1.25;font-family:sans-serif;-inkscape-font-specification:'sans-serif Bold Italic';white-space:pre;stroke-width:0.477311;fill:#666666"
       id="path2207" />
    <path
       d="m 96.495814,82.54606 q -0.635391,0.225611 -1.220131,0.340714 -0.584743,0.115108 -1.109633,0.115108 -1.385886,0 -2.21466,-0.759707 -0.828769,-0.759702 -0.828769,-2.01207 0,-0.824163 0.262445,-1.551637 0.262444,-0.73208 0.77352,-1.335244 0.603159,-0.709059 1.450347,-1.091213 0.85179,-0.382155 1.832501,-0.382155 0.534097,0 1.072799,0.12892 0.538698,0.124315 1.095815,0.382155 l -0.285465,1.422722 q -0.442009,-0.336113 -0.888624,-0.492657 -0.446615,-0.156548 -0.95769,-0.156548 -1.063587,0 -1.781854,0.819562 -0.718267,0.819561 -0.718267,2.048904 0,0.791935 0.442009,1.243156 0.442009,0.451221 1.220135,0.451221 0.46503,0 0.985313,-0.165756 0.524889,-0.170357 1.174094,-0.52949 z m -1.731206,0.322299 q 0.170357,0.239424 0.248631,0.442009 0.07827,0.20259 0.07827,0.395968 0,0.478848 -0.349921,0.741292 -0.345325,0.267046 -0.97611,0.267046 -0.225611,0 -0.451216,-0.03222 -0.22101,-0.02764 -0.455827,-0.08748 l 0.133527,-0.718267 q 0.184171,0.07827 0.368341,0.11971 0.188776,0.04143 0.363739,0.04143 0.30388,0 0.478843,-0.133527 0.174964,-0.128917 0.174964,-0.34532 0,-0.11971 -0.06446,-0.28086 -0.05985,-0.156548 -0.20259,-0.409781 z"
       style="font-style:italic;font-variant:normal;font-weight:bold;font-stretch:normal;font-size:19.7556px;line-height:1.25;font-family:sans-serif;-inkscape-font-specification:'sans-serif Bold Italic';white-space:pre;stroke-width:0.477311;fill:#666666"
       id="path2209" />
    <path
       d="m 102.33404,81.615996 h -2.744154 l -0.681433,1.252363 h -1.818688 l 3.886015,-6.874187 h 2.02588 l 1.21553,6.874187 h -1.68517 z m -2.07653,-1.247762 h 1.84631 l -0.41438,-2.647457 z"
       style="font-style:italic;font-variant:normal;font-weight:bold;font-stretch:normal;font-size:19.7556px;line-height:1.25;font-family:sans-serif;-inkscape-font-specification:'sans-serif Bold Italic';white-space:pre;stroke-width:0.477311;fill:#666666"
       id="path2211" />
    <rect
       style="font-variation-settings:normal;opacity:0.526144;vector-effect:none;fill:#0000ff;fill-opacity:1;fill-rule:evenodd;stroke:none;stroke-width:1.4021;stroke-linecap:butt;stroke-linejoin:miter;stroke-miterlimit:4;stroke-dasharray:none;stroke-dashoffset:0;stroke-opacity:1;stop-color:#000000"
       id="rect2235"
       width="23.073957"
       height="23.073957"
       x="81.867844"
       y="45.832008" />
    <rect
       style="font-variation-settings:normal;opacity:0.526144;vector-effect:none;fill:#ff0000;fill-opacity:1;fill-rule:evenodd;stroke:none;stroke-width:1.4021;stroke-linecap:butt;stroke-linejoin:miter;stroke-miterlimit:4;stroke-dasharray:none;stroke-dashoffset:0;stroke-opacity:1;stop-color:#000000"
       id="rect2235-7"
       width="23.073957"
       height="23.073957"
       x="107.3294"
       y="46.025249" />
    <rect
       style="font-variation-settings:normal;opacity:0.526144;vector-effect:none;fill:#0000ff;fill-opacity:1;fill-rule:evenodd;stroke:none;stroke-width:1.4021;stroke-linecap:butt;stroke-linejoin:miter;stroke-miterlimit:4;stroke-dasharray:none;stroke-dashoffset:0;stroke-opacity:1;stop-color:#000000"
       id="rect2235-7-3"
       width="23.073957"
       height="23.073957"
       x="94.353905"
       y="21.819708" />
  </g>
</svg>
